<svg xmlns="http://www.w3.org/2000/svg" viewBox="0 0 324 314" role="img" aria-labelledby="title desc">
  <title id="title">LaMoGe</title>
  <desc id="desc">Logo del Laboratorio de Modelado Geológico</desc>
  <rect width="324" height="314" fill="#ffffff"/>
  <g fill="#1f1d1d">
    <rect x="27" y="28" width="266" height="18"/>
    <path d="M27 45h35c18 0 35-2 50-7 15-4 29-7 43-7h35c17 0 31 3 43 7 12 5 28 7 48 7h12v31h-18c-20 0-39-3-56-9-16-6-31-9-43-9h-25c-15 0-30 3-45 9-16 6-35 9-60 9H27z"/>
    <path d="M27 92h22c21 0 39-3 53-9 15-6 29-9 43-9h52c15 0 29 3 42 9 13 6 31 9 55 9h-1v31h-24c-21 0-39-3-53-9-15-6-29-9-43-9h-49c-14 0-28 3-42 9-15 6-33 9-56 9H27z"/>
    <path d="M27 139h18c24 0 43-3 57-9 15-6 29-9 44-9h69c15 0 29 3 43 9 14 6 33 9 58 9h-23v31h-4c-26 0-46-3-61-9-15-6-30-9-46-9h-62c-14 0-29 3-44 9-16 6-36 9-60 9H27z"/>
    <path d="M27 186h54c19 0 35-3 48-9 13-6 27-9 42-9h49c19 0 36 3 49 9 13 6 30 9 52 9h22v31h-50c-20 0-38-3-52-9-14-6-30-9-47-9h-35c-16 0-30 3-43 9-14 6-32 9-56 9H27z"/>
    <path d="M27 233h16c11-18 22-32 33-43 11-10 24-15 37-15 12 0 24 4 34 13 10 8 20 23 29 45h117v11H27zm45 0h78c-7-13-14-22-21-28-7-5-15-8-22-8-9 0-18 4-27 12-2 2-5 6-8 10z"/>
    <rect x="27" y="241" width="266" height="5"/>
    <path d="M27 246h266v26h-266z"/>
  </g>
  <g fill="#1f1d1d">
    <path d="M27 291v-45h9v36h27v9z"/>
    <path d="M65 291l20-35h12l20 35H107l-4-7H78l-4 7zm18-15h15l-8-14z"/>
    <path d="M120 291v-35h10l16 22 16-22h10v35h-9v-23l-13 18h-8l-13-18v23z"/>
    <path d="M176 291v-35h39c4 0 7 1 10 4 3 2 4 6 4 10v8c0 4-1 7-4 10-3 2-6 3-10 3zm9-9h28c2 0 4-1 5-2 1-1 2-2 2-4v-4c0-2-1-4-2-5-1-1-3-2-5-2h-28z"/>
    <path d="M233 291v-35h10v35z"/>
    <path d="M248 291v-35h44v9h-35v18h35v8z"/>
  </g>
  <text x="162" y="307" text-anchor="middle" font-family="Arial, Helvetica, sans-serif" font-size="11" letter-spacing=".8" fill="#1f1d1d">LABORATORIO DE MODELADO GEOLOGICO</text>
</svg>
