<svg xmlns="http://www.w3.org/2000/svg" viewBox="0 0 800 500">
  <rect width="800" height="500" rx="36" fill="#0d1f2d"/>
  <rect x="112" y="108" width="576" height="284" rx="24" fill="#17384d"/>
  <rect x="152" y="148" width="200" height="204" rx="18" fill="#0a1822"/>
  <rect x="380" y="148" width="266" height="94" rx="18" fill="#0a1822"/>
  <rect x="380" y="258" width="266" height="94" rx="18" fill="#0a1822"/>
  <path d="M188 318c20-34 36-52 48-52 20 0 28 34 48 34 16 0 24-16 42-16 14 0 24 10 38 34" stroke="#d7b46a" stroke-width="8" fill="none"/>
  <path d="M410 212c28-24 54-34 80-28 30 8 46 34 72 34 22 0 38-12 62-30" stroke="#66c8c2" stroke-width="7" fill="none"/>
  <path d="M410 322c34-20 64-28 92-22 34 8 54 34 82 34 22 0 40-10 66-26" stroke="#f4f8fb" stroke-width="6" fill="none" opacity=".75"/>
</svg>
