<?xml version="1.0" encoding="UTF-8"?>
<svg xmlns="http://www.w3.org/2000/svg" xmlns:xlink="http://www.w3.org/1999/xlink" width="242.029" height="236.305" viewBox="0 0 242.029 236.305">
<path fill-rule="nonzero" fill="rgb(13.729858%, 12.159729%, 12.548828%)" fill-opacity="1" d="M 20.148438 218.902344 L 20.148438 213.386719 L 20.550781 213.386719 L 20.550781 218.523438 L 24.066406 218.523438 L 24.066406 218.902344 Z M 20.148438 218.902344 "/>
<path fill-rule="nonzero" fill="rgb(13.729858%, 12.159729%, 12.548828%)" fill-opacity="1" d="M 28.152344 215.320312 C 28.0625 215.109375 27.972656 214.894531 27.878906 214.679688 C 27.785156 214.46875 27.6875 214.246094 27.59375 214.019531 C 27.5 214.242188 27.40625 214.457031 27.320312 214.667969 C 27.230469 214.875 27.140625 215.082031 27.050781 215.292969 L 26.449219 216.683594 L 28.742188 216.683594 Z M 29.734375 218.902344 L 28.90625 217.0625 L 26.277344 217.0625 L 25.457031 218.902344 L 25.027344 218.902344 L 27.46875 213.386719 L 27.722656 213.386719 L 30.171875 218.902344 Z M 29.734375 218.902344 "/>
<path fill-rule="nonzero" fill="rgb(13.729858%, 12.159729%, 12.548828%)" fill-opacity="1" d="M 35.90625 216.875 C 35.816406 216.734375 35.671875 216.613281 35.472656 216.511719 C 35.277344 216.410156 35.019531 216.328125 34.710938 216.273438 C 34.398438 216.214844 34.023438 216.1875 33.582031 216.1875 L 32.316406 216.1875 L 32.316406 218.523438 L 33.460938 218.523438 C 33.78125 218.523438 34.09375 218.511719 34.398438 218.484375 C 34.710938 218.457031 34.984375 218.398438 35.226562 218.316406 C 35.472656 218.230469 35.667969 218.109375 35.816406 217.953125 C 35.964844 217.796875 36.039062 217.59375 36.039062 217.339844 C 36.039062 217.171875 35.996094 217.015625 35.90625 216.875 M 35.59375 214.371094 C 35.523438 214.257812 35.402344 214.152344 35.234375 214.0625 C 35.066406 213.972656 34.835938 213.902344 34.550781 213.847656 C 34.261719 213.792969 33.902344 213.765625 33.46875 213.765625 L 32.316406 213.765625 L 32.316406 215.804688 L 33.476562 215.804688 C 33.976562 215.804688 34.371094 215.773438 34.664062 215.710938 C 34.953125 215.644531 35.179688 215.5625 35.332031 215.460938 C 35.484375 215.359375 35.585938 215.242188 35.628906 215.117188 C 35.675781 214.988281 35.695312 214.867188 35.695312 214.742188 C 35.695312 214.613281 35.660156 214.488281 35.59375 214.371094 M 36.308594 217.949219 C 36.21875 218.121094 36.09375 218.261719 35.941406 218.378906 C 35.789062 218.496094 35.613281 218.589844 35.410156 218.65625 C 35.210938 218.726562 35 218.78125 34.78125 218.820312 C 34.5625 218.855469 34.339844 218.878906 34.109375 218.890625 C 33.882812 218.898438 33.667969 218.902344 33.460938 218.902344 L 31.914062 218.902344 L 31.914062 213.386719 L 33.492188 213.386719 C 33.953125 213.386719 34.351562 213.417969 34.679688 213.484375 C 35.011719 213.546875 35.28125 213.636719 35.492188 213.757812 C 35.703125 213.878906 35.859375 214.019531 35.953125 214.1875 C 36.050781 214.359375 36.097656 214.546875 36.097656 214.757812 C 36.097656 215.042969 36.015625 215.292969 35.851562 215.5 C 35.6875 215.710938 35.429688 215.867188 35.070312 215.976562 C 35.492188 216.066406 35.828125 216.222656 36.074219 216.445312 C 36.320312 216.667969 36.441406 216.96875 36.441406 217.339844 C 36.441406 217.578125 36.394531 217.78125 36.308594 217.949219 "/>
<path fill-rule="nonzero" fill="rgb(13.729858%, 12.159729%, 12.548828%)" fill-opacity="1" d="M 43.53125 215.035156 C 43.386719 214.71875 43.195312 214.460938 42.953125 214.257812 C 42.714844 214.054688 42.433594 213.902344 42.113281 213.800781 C 41.800781 213.695312 41.46875 213.648438 41.125 213.648438 L 41.117188 213.648438 C 40.773438 213.648438 40.445312 213.695312 40.132812 213.800781 C 39.816406 213.902344 39.539062 214.054688 39.296875 214.257812 C 39.058594 214.460938 38.863281 214.71875 38.71875 215.035156 C 38.574219 215.351562 38.503906 215.71875 38.503906 216.140625 C 38.503906 216.5625 38.574219 216.929688 38.71875 217.242188 C 38.863281 217.554688 39.058594 217.8125 39.296875 218.015625 C 39.539062 218.222656 39.816406 218.375 40.136719 218.476562 C 40.453125 218.578125 40.78125 218.628906 41.125 218.628906 C 41.46875 218.628906 41.800781 218.578125 42.113281 218.476562 C 42.433594 218.375 42.714844 218.222656 42.953125 218.015625 C 43.195312 217.8125 43.386719 217.554688 43.53125 217.242188 C 43.675781 216.929688 43.746094 216.5625 43.746094 216.140625 C 43.746094 215.71875 43.675781 215.351562 43.53125 215.035156 M 43.894531 217.40625 C 43.726562 217.765625 43.503906 218.0625 43.222656 218.300781 C 42.941406 218.539062 42.617188 218.714844 42.253906 218.832031 C 41.886719 218.949219 41.511719 219.007812 41.125 219.007812 C 40.738281 219.007812 40.363281 218.949219 39.996094 218.832031 C 39.632812 218.714844 39.308594 218.539062 39.027344 218.300781 C 38.75 218.0625 38.523438 217.765625 38.355469 217.40625 C 38.1875 217.050781 38.101562 216.628906 38.101562 216.148438 L 38.101562 216.140625 C 38.101562 215.660156 38.1875 215.238281 38.355469 214.882812 C 38.523438 214.523438 38.75 214.226562 39.027344 213.988281 C 39.308594 213.75 39.632812 213.574219 39.996094 213.457031 C 40.363281 213.339844 40.738281 213.28125 41.125 213.28125 C 41.511719 213.28125 41.886719 213.339844 42.253906 213.457031 C 42.617188 213.574219 42.941406 213.75 43.222656 213.988281 C 43.503906 214.226562 43.726562 214.527344 43.894531 214.886719 C 44.0625 215.246094 44.148438 215.667969 44.148438 216.148438 C 44.148438 216.628906 44.0625 217.050781 43.894531 217.40625 "/>
<path fill-rule="nonzero" fill="rgb(13.729858%, 12.159729%, 12.548828%)" fill-opacity="1" d="M 50.207031 214.527344 C 50.148438 214.386719 50.035156 214.257812 49.863281 214.144531 C 49.691406 214.03125 49.453125 213.9375 49.140625 213.871094 C 48.832031 213.800781 48.417969 213.765625 47.910156 213.765625 L 46.476562 213.765625 L 46.476562 216.230469 L 48.40625 216.230469 C 48.71875 216.230469 48.996094 216.191406 49.230469 216.121094 C 49.46875 216.042969 49.664062 215.945312 49.820312 215.828125 C 49.976562 215.710938 50.09375 215.574219 50.171875 215.421875 C 50.253906 215.269531 50.292969 215.117188 50.292969 214.957031 C 50.292969 214.8125 50.265625 214.671875 50.207031 214.527344 M 50.671875 218.902344 L 48.3125 216.609375 L 46.476562 216.609375 L 46.476562 218.902344 L 46.078125 218.902344 L 46.078125 213.386719 L 47.96875 213.386719 C 48.914062 213.386719 49.609375 213.523438 50.042969 213.796875 C 50.476562 214.074219 50.695312 214.460938 50.695312 214.957031 C 50.695312 215.179688 50.644531 215.382812 50.550781 215.566406 C 50.453125 215.75 50.320312 215.914062 50.152344 216.054688 C 49.980469 216.195312 49.78125 216.3125 49.554688 216.402344 C 49.324219 216.492188 49.082031 216.550781 48.816406 216.582031 L 51.230469 218.902344 Z M 50.671875 218.902344 "/>
<path fill-rule="nonzero" fill="rgb(13.729858%, 12.159729%, 12.548828%)" fill-opacity="1" d="M 54.9375 215.320312 C 54.847656 215.109375 54.757812 214.894531 54.664062 214.679688 C 54.570312 214.46875 54.472656 214.246094 54.378906 214.019531 C 54.285156 214.242188 54.191406 214.457031 54.105469 214.667969 C 54.015625 214.875 53.925781 215.082031 53.835938 215.292969 L 53.234375 216.683594 L 55.527344 216.683594 Z M 56.519531 218.902344 L 55.691406 217.0625 L 53.0625 217.0625 L 52.242188 218.902344 L 51.8125 218.902344 L 54.253906 213.386719 L 54.507812 213.386719 L 56.957031 218.902344 Z M 56.519531 218.902344 "/>
<path fill-rule="nonzero" fill="rgb(13.729858%, 12.159729%, 12.548828%)" fill-opacity="1" d="M 59.660156 213.765625 L 59.660156 218.902344 L 59.257812 218.902344 L 59.257812 213.765625 L 57.082031 213.765625 L 57.082031 213.386719 L 61.835938 213.386719 L 61.835938 213.765625 Z M 59.660156 213.765625 "/>
<path fill-rule="nonzero" fill="rgb(13.729858%, 12.159729%, 12.548828%)" fill-opacity="1" d="M 67.441406 215.035156 C 67.296875 214.71875 67.105469 214.460938 66.863281 214.257812 C 66.625 214.054688 66.34375 213.902344 66.027344 213.800781 C 65.710938 213.695312 65.378906 213.648438 65.035156 213.648438 L 65.027344 213.648438 C 64.6875 213.648438 64.359375 213.695312 64.042969 213.800781 C 63.726562 213.902344 63.449219 214.054688 63.207031 214.257812 C 62.96875 214.460938 62.777344 214.71875 62.632812 215.035156 C 62.488281 215.351562 62.414062 215.71875 62.414062 216.140625 C 62.414062 216.5625 62.488281 216.929688 62.632812 217.242188 C 62.777344 217.554688 62.96875 217.8125 63.207031 218.015625 C 63.449219 218.222656 63.726562 218.375 64.046875 218.476562 C 64.363281 218.578125 64.695312 218.628906 65.035156 218.628906 C 65.378906 218.628906 65.710938 218.578125 66.027344 218.476562 C 66.34375 218.375 66.625 218.222656 66.863281 218.015625 C 67.105469 217.8125 67.296875 217.554688 67.441406 217.242188 C 67.585938 216.929688 67.65625 216.5625 67.65625 216.140625 C 67.65625 215.71875 67.585938 215.351562 67.441406 215.035156 M 67.804688 217.40625 C 67.636719 217.765625 67.414062 218.0625 67.132812 218.300781 C 66.851562 218.539062 66.53125 218.714844 66.164062 218.832031 C 65.800781 218.949219 65.425781 219.007812 65.035156 219.007812 C 64.648438 219.007812 64.273438 218.949219 63.90625 218.832031 C 63.542969 218.714844 63.222656 218.539062 62.941406 218.300781 C 62.660156 218.0625 62.433594 217.765625 62.265625 217.40625 C 62.097656 217.050781 62.011719 216.628906 62.011719 216.148438 L 62.011719 216.140625 C 62.011719 215.660156 62.097656 215.238281 62.265625 214.882812 C 62.433594 214.523438 62.660156 214.226562 62.941406 213.988281 C 63.222656 213.75 63.542969 213.574219 63.90625 213.457031 C 64.273438 213.339844 64.648438 213.28125 65.035156 213.28125 C 65.425781 213.28125 65.800781 213.339844 66.164062 213.457031 C 66.53125 213.574219 66.851562 213.75 67.132812 213.988281 C 67.414062 214.226562 67.636719 214.527344 67.804688 214.886719 C 67.976562 215.246094 68.058594 215.667969 68.058594 216.148438 C 68.058594 216.628906 67.976562 217.050781 67.804688 217.40625 "/>
<path fill-rule="nonzero" fill="rgb(13.729858%, 12.159729%, 12.548828%)" fill-opacity="1" d="M 74.117188 214.527344 C 74.058594 214.386719 73.945312 214.257812 73.773438 214.144531 C 73.601562 214.03125 73.363281 213.9375 73.050781 213.871094 C 72.742188 213.800781 72.332031 213.765625 71.820312 213.765625 L 70.390625 213.765625 L 70.390625 216.230469 L 72.320312 216.230469 C 72.632812 216.230469 72.90625 216.191406 73.140625 216.121094 C 73.378906 216.042969 73.574219 215.945312 73.730469 215.828125 C 73.886719 215.710938 74.003906 215.574219 74.082031 215.421875 C 74.164062 215.269531 74.203125 215.117188 74.203125 214.957031 C 74.203125 214.8125 74.175781 214.671875 74.117188 214.527344 M 74.582031 218.902344 L 72.222656 216.609375 L 70.390625 216.609375 L 70.390625 218.902344 L 69.988281 218.902344 L 69.988281 213.386719 L 71.878906 213.386719 C 72.828125 213.386719 73.519531 213.523438 73.953125 213.796875 C 74.386719 214.074219 74.605469 214.460938 74.605469 214.957031 C 74.605469 215.179688 74.554688 215.382812 74.460938 215.566406 C 74.363281 215.75 74.230469 215.914062 74.0625 216.054688 C 73.894531 216.195312 73.691406 216.3125 73.464844 216.402344 C 73.238281 216.492188 72.992188 216.550781 72.726562 216.582031 L 75.140625 218.902344 Z M 74.582031 218.902344 "/>
<path fill-rule="nonzero" fill="rgb(13.729858%, 12.159729%, 12.548828%)" fill-opacity="1" d="M 76.792969 213.386719 L 77.195312 213.386719 L 77.195312 218.902344 L 76.792969 218.902344 Z M 76.792969 213.386719 "/>
<path fill-rule="nonzero" fill="rgb(13.729858%, 12.159729%, 12.548828%)" fill-opacity="1" d="M 84.515625 215.035156 C 84.371094 214.71875 84.179688 214.460938 83.9375 214.257812 C 83.699219 214.054688 83.417969 213.902344 83.101562 213.800781 C 82.785156 213.695312 82.453125 213.648438 82.113281 213.648438 L 82.105469 213.648438 C 81.761719 213.648438 81.433594 213.695312 81.117188 213.800781 C 80.800781 213.902344 80.523438 214.054688 80.28125 214.257812 C 80.042969 214.460938 79.851562 214.71875 79.707031 215.035156 C 79.5625 215.351562 79.488281 215.71875 79.488281 216.140625 C 79.488281 216.5625 79.5625 216.929688 79.707031 217.242188 C 79.851562 217.554688 80.042969 217.8125 80.28125 218.015625 C 80.523438 218.222656 80.800781 218.375 81.121094 218.476562 C 81.4375 218.578125 81.769531 218.628906 82.113281 218.628906 C 82.453125 218.628906 82.785156 218.578125 83.101562 218.476562 C 83.417969 218.375 83.699219 218.222656 83.9375 218.015625 C 84.179688 217.8125 84.371094 217.554688 84.515625 217.242188 C 84.660156 216.929688 84.734375 216.5625 84.734375 216.140625 C 84.734375 215.71875 84.660156 215.351562 84.515625 215.035156 M 84.878906 217.40625 C 84.710938 217.765625 84.488281 218.0625 84.207031 218.300781 C 83.925781 218.539062 83.605469 218.714844 83.238281 218.832031 C 82.875 218.949219 82.5 219.007812 82.113281 219.007812 C 81.722656 219.007812 81.347656 218.949219 80.984375 218.832031 C 80.617188 218.714844 80.296875 218.539062 80.015625 218.300781 C 79.734375 218.0625 79.511719 217.765625 79.339844 217.40625 C 79.171875 217.050781 79.089844 216.628906 79.089844 216.148438 L 79.089844 216.140625 C 79.089844 215.660156 79.171875 215.238281 79.339844 214.882812 C 79.511719 214.523438 79.734375 214.226562 80.015625 213.988281 C 80.296875 213.75 80.617188 213.574219 80.984375 213.457031 C 81.347656 213.339844 81.722656 213.28125 82.113281 213.28125 C 82.5 213.28125 82.875 213.339844 83.238281 213.457031 C 83.605469 213.574219 83.925781 213.75 84.207031 213.988281 C 84.488281 214.226562 84.710938 214.527344 84.878906 214.886719 C 85.050781 215.246094 85.132812 215.667969 85.132812 216.148438 C 85.132812 216.628906 85.050781 217.050781 84.878906 217.40625 "/>
<path fill-rule="nonzero" fill="rgb(13.729858%, 12.159729%, 12.548828%)" fill-opacity="1" d="M 94.457031 215.179688 C 94.355469 214.886719 94.191406 214.636719 93.972656 214.429688 C 93.753906 214.21875 93.472656 214.058594 93.128906 213.941406 C 92.78125 213.824219 92.371094 213.765625 91.898438 213.765625 L 90.480469 213.765625 L 90.480469 218.523438 L 91.898438 218.523438 C 92.371094 218.523438 92.78125 218.464844 93.128906 218.347656 C 93.472656 218.230469 93.753906 218.070312 93.972656 217.859375 C 94.191406 217.652344 94.355469 217.402344 94.457031 217.113281 C 94.5625 216.820312 94.613281 216.5 94.613281 216.148438 C 94.613281 215.796875 94.5625 215.472656 94.457031 215.179688 M 94.820312 217.28125 C 94.691406 217.625 94.5 217.914062 94.242188 218.152344 C 93.984375 218.390625 93.65625 218.574219 93.261719 218.707031 C 92.867188 218.835938 92.40625 218.902344 91.882812 218.902344 L 90.078125 218.902344 L 90.078125 213.386719 L 91.882812 213.386719 C 92.40625 213.386719 92.867188 213.453125 93.261719 213.582031 C 93.65625 213.714844 93.984375 213.902344 94.242188 214.140625 C 94.5 214.382812 94.691406 214.671875 94.820312 215.011719 C 94.953125 215.351562 95.015625 215.730469 95.015625 216.148438 C 95.015625 216.566406 94.953125 216.945312 94.820312 217.28125 "/>
<path fill-rule="nonzero" fill="rgb(13.729858%, 12.159729%, 12.548828%)" fill-opacity="1" d="M 96.898438 218.902344 L 96.898438 213.386719 L 100.601562 213.386719 L 100.601562 213.765625 L 97.300781 213.765625 L 97.300781 215.835938 L 99.984375 215.835938 L 99.984375 216.214844 L 97.300781 216.214844 L 97.300781 218.523438 L 100.707031 218.523438 L 100.707031 218.902344 Z M 96.898438 218.902344 "/>
<path fill-rule="nonzero" fill="rgb(13.729858%, 12.159729%, 12.548828%)" fill-opacity="1" d="M 112.835938 218.902344 L 112.835938 215.960938 C 112.835938 215.167969 112.839844 214.53125 112.84375 214.054688 C 112.535156 214.527344 112.113281 215.164062 111.578125 215.964844 C 111.046875 216.765625 110.394531 217.746094 109.625 218.902344 L 109.328125 218.902344 C 108.554688 217.738281 107.902344 216.753906 107.371094 215.957031 C 106.84375 215.15625 106.425781 214.523438 106.117188 214.054688 C 106.125 214.53125 106.125 215.167969 106.125 215.960938 L 106.125 218.902344 L 105.722656 218.902344 L 105.722656 213.386719 L 106.140625 213.386719 C 106.960938 214.617188 107.648438 215.648438 108.203125 216.484375 C 108.757812 217.316406 109.1875 217.960938 109.484375 218.410156 C 109.78125 217.960938 110.207031 217.316406 110.765625 216.484375 C 111.320312 215.648438 112.007812 214.617188 112.828125 213.386719 L 113.238281 213.386719 L 113.238281 218.902344 Z M 112.835938 218.902344 "/>
<path fill-rule="nonzero" fill="rgb(13.729858%, 12.159729%, 12.548828%)" fill-opacity="1" d="M 120.558594 215.035156 C 120.414062 214.71875 120.222656 214.460938 119.980469 214.257812 C 119.738281 214.054688 119.460938 213.902344 119.140625 213.800781 C 118.824219 213.695312 118.496094 213.648438 118.152344 213.648438 L 118.144531 213.648438 C 117.804688 213.648438 117.472656 213.695312 117.160156 213.800781 C 116.84375 213.902344 116.566406 214.054688 116.324219 214.257812 C 116.082031 214.460938 115.890625 214.71875 115.746094 215.035156 C 115.601562 215.351562 115.53125 215.71875 115.53125 216.140625 C 115.53125 216.5625 115.601562 216.929688 115.746094 217.242188 C 115.890625 217.554688 116.082031 217.8125 116.324219 218.015625 C 116.566406 218.222656 116.84375 218.375 117.164062 218.476562 C 117.480469 218.578125 117.808594 218.628906 118.152344 218.628906 C 118.496094 218.628906 118.824219 218.578125 119.140625 218.476562 C 119.460938 218.375 119.738281 218.222656 119.980469 218.015625 C 120.222656 217.8125 120.414062 217.554688 120.558594 217.242188 C 120.703125 216.929688 120.773438 216.5625 120.773438 216.140625 C 120.773438 215.71875 120.703125 215.351562 120.558594 215.035156 M 120.921875 217.40625 C 120.753906 217.765625 120.53125 218.0625 120.25 218.300781 C 119.96875 218.539062 119.644531 218.714844 119.28125 218.832031 C 118.917969 218.949219 118.539062 219.007812 118.152344 219.007812 C 117.765625 219.007812 117.386719 218.949219 117.023438 218.832031 C 116.660156 218.714844 116.335938 218.539062 116.054688 218.300781 C 115.773438 218.0625 115.550781 217.765625 115.382812 217.40625 C 115.214844 217.050781 115.128906 216.628906 115.128906 216.148438 L 115.128906 216.140625 C 115.128906 215.660156 115.214844 215.238281 115.382812 214.882812 C 115.550781 214.523438 115.773438 214.226562 116.054688 213.988281 C 116.335938 213.75 116.660156 213.574219 117.023438 213.457031 C 117.386719 213.339844 117.765625 213.28125 118.152344 213.28125 C 118.539062 213.28125 118.917969 213.339844 119.28125 213.457031 C 119.644531 213.574219 119.96875 213.75 120.25 213.988281 C 120.53125 214.226562 120.753906 214.527344 120.921875 214.886719 C 121.089844 215.246094 121.175781 215.667969 121.175781 216.148438 C 121.175781 216.628906 121.089844 217.050781 120.921875 217.40625 "/>
<path fill-rule="nonzero" fill="rgb(13.729858%, 12.159729%, 12.548828%)" fill-opacity="1" d="M 127.445312 215.179688 C 127.339844 214.886719 127.179688 214.636719 126.960938 214.429688 C 126.742188 214.21875 126.460938 214.058594 126.117188 213.941406 C 125.769531 213.824219 125.359375 213.765625 124.882812 213.765625 L 123.46875 213.765625 L 123.46875 218.523438 L 124.882812 218.523438 C 125.359375 218.523438 125.769531 218.464844 126.117188 218.347656 C 126.460938 218.230469 126.742188 218.070312 126.960938 217.859375 C 127.179688 217.652344 127.339844 217.402344 127.445312 217.113281 C 127.550781 216.820312 127.601562 216.5 127.601562 216.148438 C 127.601562 215.796875 127.550781 215.472656 127.445312 215.179688 M 127.808594 217.28125 C 127.679688 217.625 127.488281 217.914062 127.230469 218.152344 C 126.972656 218.390625 126.644531 218.574219 126.25 218.707031 C 125.855469 218.835938 125.394531 218.902344 124.871094 218.902344 L 123.066406 218.902344 L 123.066406 213.386719 L 124.871094 213.386719 C 125.394531 213.386719 125.855469 213.453125 126.25 213.582031 C 126.644531 213.714844 126.972656 213.902344 127.230469 214.140625 C 127.488281 214.382812 127.679688 214.671875 127.808594 215.011719 C 127.9375 215.351562 128.003906 215.730469 128.003906 216.148438 C 128.003906 216.566406 127.9375 216.945312 127.808594 217.28125 "/>
<path fill-rule="nonzero" fill="rgb(13.729858%, 12.159729%, 12.548828%)" fill-opacity="1" d="M 129.886719 218.902344 L 129.886719 213.386719 L 133.589844 213.386719 L 133.589844 213.765625 L 130.289062 213.765625 L 130.289062 215.835938 L 132.972656 215.835938 L 132.972656 216.214844 L 130.289062 216.214844 L 130.289062 218.523438 L 133.691406 218.523438 L 133.691406 218.902344 Z M 129.886719 218.902344 "/>
<path fill-rule="nonzero" fill="rgb(13.729858%, 12.159729%, 12.548828%)" fill-opacity="1" d="M 135.078125 218.902344 L 135.078125 213.386719 L 135.480469 213.386719 L 135.480469 218.523438 L 138.996094 218.523438 L 138.996094 218.902344 Z M 135.078125 218.902344 "/>
<path fill-rule="nonzero" fill="rgb(13.729858%, 12.159729%, 12.548828%)" fill-opacity="1" d="M 143.082031 215.320312 C 142.992188 215.109375 142.902344 214.894531 142.808594 214.679688 C 142.714844 214.46875 142.621094 214.246094 142.523438 214.019531 C 142.429688 214.242188 142.339844 214.457031 142.25 214.667969 C 142.160156 214.875 142.070312 215.082031 141.980469 215.292969 L 141.378906 216.683594 L 143.671875 216.683594 Z M 144.664062 218.902344 L 143.835938 217.0625 L 141.207031 217.0625 L 140.386719 218.902344 L 139.957031 218.902344 L 142.398438 213.386719 L 142.652344 213.386719 L 145.101562 218.902344 Z M 144.664062 218.902344 "/>
<path fill-rule="nonzero" fill="rgb(13.729858%, 12.159729%, 12.548828%)" fill-opacity="1" d="M 151.222656 215.179688 C 151.117188 214.886719 150.957031 214.636719 150.738281 214.429688 C 150.519531 214.21875 150.238281 214.058594 149.894531 213.941406 C 149.546875 213.824219 149.136719 213.765625 148.660156 213.765625 L 147.246094 213.765625 L 147.246094 218.523438 L 148.660156 218.523438 C 149.136719 218.523438 149.546875 218.464844 149.894531 218.347656 C 150.238281 218.230469 150.519531 218.070312 150.738281 217.859375 C 150.957031 217.652344 151.117188 217.402344 151.222656 217.113281 C 151.328125 216.820312 151.378906 216.5 151.378906 216.148438 C 151.378906 215.796875 151.328125 215.472656 151.222656 215.179688 M 151.585938 217.28125 C 151.457031 217.625 151.265625 217.914062 151.003906 218.152344 C 150.746094 218.390625 150.421875 218.574219 150.027344 218.707031 C 149.632812 218.835938 149.171875 218.902344 148.644531 218.902344 L 146.84375 218.902344 L 146.84375 213.386719 L 148.644531 213.386719 C 149.171875 213.386719 149.632812 213.453125 150.027344 213.582031 C 150.421875 213.714844 150.746094 213.902344 151.003906 214.140625 C 151.265625 214.382812 151.457031 214.671875 151.585938 215.011719 C 151.714844 215.351562 151.78125 215.730469 151.78125 216.148438 C 151.78125 216.566406 151.714844 216.945312 151.585938 217.28125 "/>
<path fill-rule="nonzero" fill="rgb(13.729858%, 12.159729%, 12.548828%)" fill-opacity="1" d="M 158.90625 215.035156 C 158.761719 214.71875 158.570312 214.460938 158.332031 214.257812 C 158.089844 214.054688 157.808594 213.902344 157.492188 213.800781 C 157.175781 213.695312 156.847656 213.648438 156.503906 213.648438 L 156.496094 213.648438 C 156.152344 213.648438 155.824219 213.695312 155.507812 213.800781 C 155.195312 213.902344 154.914062 214.054688 154.675781 214.257812 C 154.433594 214.460938 154.242188 214.71875 154.097656 215.035156 C 153.953125 215.351562 153.882812 215.71875 153.882812 216.140625 C 153.882812 216.5625 153.953125 216.929688 154.097656 217.242188 C 154.242188 217.554688 154.433594 217.8125 154.675781 218.015625 C 154.914062 218.222656 155.195312 218.375 155.511719 218.476562 C 155.832031 218.578125 156.160156 218.628906 156.503906 218.628906 C 156.847656 218.628906 157.175781 218.578125 157.492188 218.476562 C 157.808594 218.375 158.089844 218.222656 158.332031 218.015625 C 158.570312 217.8125 158.761719 217.554688 158.90625 217.242188 C 159.050781 216.929688 159.125 216.5625 159.125 216.140625 C 159.125 215.71875 159.050781 215.351562 158.90625 215.035156 M 159.273438 217.40625 C 159.101562 217.765625 158.878906 218.0625 158.597656 218.300781 C 158.316406 218.539062 157.996094 218.714844 157.632812 218.832031 C 157.265625 218.949219 156.890625 219.007812 156.503906 219.007812 C 156.113281 219.007812 155.738281 218.949219 155.375 218.832031 C 155.007812 218.714844 154.6875 218.539062 154.40625 218.300781 C 154.125 218.0625 153.902344 217.765625 153.734375 217.40625 C 153.5625 217.050781 153.480469 216.628906 153.480469 216.148438 L 153.480469 216.140625 C 153.480469 215.660156 153.5625 215.238281 153.734375 214.882812 C 153.902344 214.523438 154.125 214.226562 154.40625 213.988281 C 154.6875 213.75 155.007812 213.574219 155.375 213.457031 C 155.738281 213.339844 156.113281 213.28125 156.503906 213.28125 C 156.890625 213.28125 157.265625 213.339844 157.632812 213.457031 C 157.996094 213.574219 158.316406 213.75 158.597656 213.988281 C 158.878906 214.226562 159.101562 214.527344 159.273438 214.886719 C 159.441406 215.246094 159.527344 215.667969 159.527344 216.148438 C 159.527344 216.628906 159.441406 217.050781 159.273438 217.40625 "/>
<path fill-rule="nonzero" fill="rgb(13.729858%, 12.159729%, 12.548828%)" fill-opacity="1" d="M 168.804688 214.644531 C 168.675781 214.476562 168.546875 214.328125 168.417969 214.203125 C 168.289062 214.082031 168.148438 213.976562 168 213.894531 C 167.851562 213.8125 167.6875 213.753906 167.515625 213.710938 C 167.34375 213.671875 167.144531 213.652344 166.929688 213.652344 C 166.75 213.652344 166.5625 213.671875 166.363281 213.710938 C 166.164062 213.746094 165.96875 213.804688 165.777344 213.886719 C 165.585938 213.964844 165.40625 214.070312 165.234375 214.195312 C 165.0625 214.328125 164.910156 214.484375 164.78125 214.671875 C 164.648438 214.855469 164.542969 215.070312 164.46875 215.3125 C 164.390625 215.558594 164.351562 215.835938 164.351562 216.148438 C 164.351562 216.550781 164.421875 216.90625 164.554688 217.214844 C 164.691406 217.523438 164.878906 217.78125 165.113281 217.992188 C 165.34375 218.203125 165.621094 218.363281 165.9375 218.472656 C 166.253906 218.582031 166.59375 218.636719 166.949219 218.636719 C 167.238281 218.636719 167.535156 218.59375 167.835938 218.511719 C 168.140625 218.429688 168.417969 218.308594 168.671875 218.152344 L 168.671875 216.738281 L 166.519531 216.738281 L 166.519531 216.355469 L 169.074219 216.355469 L 169.074219 218.351562 C 168.890625 218.472656 168.710938 218.574219 168.535156 218.65625 C 168.363281 218.742188 168.1875 218.808594 168.011719 218.863281 C 167.835938 218.914062 167.65625 218.953125 167.472656 218.976562 C 167.289062 218.996094 167.097656 219.007812 166.898438 219.007812 C 166.511719 219.007812 166.136719 218.945312 165.78125 218.816406 C 165.421875 218.691406 165.109375 218.503906 164.839844 218.257812 C 164.570312 218.011719 164.351562 217.714844 164.191406 217.363281 C 164.03125 217.007812 163.949219 216.605469 163.949219 216.148438 C 163.949219 215.800781 163.992188 215.488281 164.078125 215.210938 C 164.167969 214.9375 164.285156 214.695312 164.433594 214.480469 C 164.582031 214.269531 164.753906 214.085938 164.949219 213.933594 C 165.148438 213.78125 165.351562 213.65625 165.574219 213.558594 C 165.792969 213.464844 166.015625 213.394531 166.242188 213.347656 C 166.46875 213.304688 166.691406 213.28125 166.898438 213.28125 C 167.171875 213.28125 167.414062 213.304688 167.628906 213.355469 C 167.839844 213.40625 168.035156 213.480469 168.207031 213.578125 C 168.382812 213.679688 168.542969 213.800781 168.691406 213.945312 C 168.839844 214.089844 168.988281 214.253906 169.132812 214.4375 Z M 168.804688 214.644531 "/>
<path fill-rule="nonzero" fill="rgb(13.729858%, 12.159729%, 12.548828%)" fill-opacity="1" d="M 170.71875 218.902344 L 170.71875 213.386719 L 174.417969 213.386719 L 174.417969 213.765625 L 171.121094 213.765625 L 171.121094 215.835938 L 173.800781 215.835938 L 173.800781 216.214844 L 171.121094 216.214844 L 171.121094 218.523438 L 174.523438 218.523438 L 174.523438 218.902344 Z M 170.71875 218.902344 "/>
<path fill-rule="nonzero" fill="rgb(13.729858%, 12.159729%, 12.548828%)" fill-opacity="1" d="M 180.664062 215.035156 C 180.523438 214.71875 180.328125 214.460938 180.089844 214.257812 C 179.847656 214.054688 179.570312 213.902344 179.25 213.800781 C 178.933594 213.695312 178.605469 213.648438 178.261719 213.648438 L 178.253906 213.648438 C 177.910156 213.648438 177.582031 213.695312 177.265625 213.800781 C 176.953125 213.902344 176.671875 214.054688 176.433594 214.257812 C 176.191406 214.460938 176 214.71875 175.855469 215.035156 C 175.710938 215.351562 175.640625 215.71875 175.640625 216.140625 C 175.640625 216.5625 175.710938 216.929688 175.855469 217.242188 C 176 217.554688 176.191406 217.8125 176.433594 218.015625 C 176.671875 218.222656 176.953125 218.375 177.269531 218.476562 C 177.585938 218.578125 177.917969 218.628906 178.261719 218.628906 C 178.605469 218.628906 178.933594 218.578125 179.25 218.476562 C 179.570312 218.375 179.847656 218.222656 180.089844 218.015625 C 180.328125 217.8125 180.523438 217.554688 180.664062 217.242188 C 180.8125 216.929688 180.882812 216.5625 180.882812 216.140625 C 180.882812 215.71875 180.8125 215.351562 180.664062 215.035156 M 181.03125 217.40625 C 180.863281 217.765625 180.636719 218.0625 180.355469 218.300781 C 180.074219 218.539062 179.753906 218.714844 179.390625 218.832031 C 179.023438 218.949219 178.648438 219.007812 178.261719 219.007812 C 177.871094 219.007812 177.496094 218.949219 177.132812 218.832031 C 176.769531 218.714844 176.445312 218.539062 176.164062 218.300781 C 175.882812 218.0625 175.660156 217.765625 175.492188 217.40625 C 175.324219 217.050781 175.238281 216.628906 175.238281 216.148438 L 175.238281 216.140625 C 175.238281 215.660156 175.324219 215.238281 175.492188 214.882812 C 175.660156 214.523438 175.882812 214.226562 176.164062 213.988281 C 176.445312 213.75 176.769531 213.574219 177.132812 213.457031 C 177.496094 213.339844 177.871094 213.28125 178.261719 213.28125 C 178.648438 213.28125 179.023438 213.339844 179.390625 213.457031 C 179.753906 213.574219 180.074219 213.75 180.355469 213.988281 C 180.636719 214.226562 180.863281 214.527344 181.03125 214.886719 C 181.199219 215.246094 181.285156 215.667969 181.285156 216.148438 C 181.285156 216.628906 181.199219 217.050781 181.03125 217.40625 "/>
<path fill-rule="nonzero" fill="rgb(13.729858%, 12.159729%, 12.548828%)" fill-opacity="1" d="M 183.175781 218.902344 L 183.175781 213.386719 L 183.578125 213.386719 L 183.578125 218.523438 L 187.09375 218.523438 L 187.09375 218.902344 Z M 183.175781 218.902344 "/>
<path fill-rule="nonzero" fill="rgb(13.729858%, 12.159729%, 12.548828%)" fill-opacity="1" d="M 193.957031 215.035156 C 193.8125 214.71875 193.621094 214.460938 193.382812 214.257812 C 193.140625 214.054688 192.859375 213.902344 192.542969 213.800781 C 192.226562 213.695312 191.894531 213.648438 191.554688 213.648438 L 191.546875 213.648438 C 191.203125 213.648438 190.871094 213.695312 190.558594 213.800781 C 190.242188 213.902344 189.964844 214.054688 189.726562 214.257812 C 189.484375 214.460938 189.292969 214.71875 189.148438 215.035156 C 189.003906 215.351562 188.933594 215.71875 188.933594 216.140625 C 188.933594 216.5625 189.003906 216.929688 189.148438 217.242188 C 189.292969 217.554688 189.484375 217.8125 189.726562 218.015625 C 189.964844 218.222656 190.246094 218.375 190.5625 218.476562 C 190.878906 218.578125 191.210938 218.628906 191.554688 218.628906 C 191.894531 218.628906 192.226562 218.578125 192.542969 218.476562 C 192.859375 218.375 193.140625 218.222656 193.382812 218.015625 C 193.621094 217.8125 193.8125 217.554688 193.957031 217.242188 C 194.101562 216.929688 194.175781 216.5625 194.175781 216.140625 C 194.175781 215.71875 194.101562 215.351562 193.957031 215.035156 M 194.324219 217.382812 C 194.152344 217.742188 193.929688 218.039062 193.648438 218.277344 C 193.367188 218.515625 193.046875 218.695312 192.683594 218.8125 C 192.316406 218.925781 191.941406 218.984375 191.554688 218.984375 C 191.164062 218.984375 190.789062 218.925781 190.425781 218.8125 C 190.058594 218.695312 189.738281 218.515625 189.457031 218.277344 C 189.175781 218.039062 188.953125 217.742188 188.785156 217.382812 C 188.613281 217.027344 188.53125 216.609375 188.53125 216.125 L 188.53125 216.117188 C 188.53125 215.6875 188.597656 215.304688 188.734375 214.96875 C 188.871094 214.632812 189.054688 214.347656 189.292969 214.117188 C 189.53125 213.882812 189.800781 213.695312 190.113281 213.558594 C 190.421875 213.417969 190.75 213.328125 191.089844 213.289062 L 192.410156 212.476562 L 193.347656 212.476562 L 191.792969 213.265625 C 192.15625 213.292969 192.507812 213.367188 192.84375 213.492188 C 193.179688 213.621094 193.476562 213.804688 193.734375 214.042969 C 193.992188 214.277344 194.199219 214.570312 194.347656 214.914062 C 194.5 215.261719 194.578125 215.664062 194.578125 216.125 C 194.578125 216.609375 194.492188 217.027344 194.324219 217.382812 "/>
<path fill-rule="nonzero" fill="rgb(13.729858%, 12.159729%, 12.548828%)" fill-opacity="1" d="M 201.128906 214.644531 C 201 214.476562 200.871094 214.328125 200.742188 214.203125 C 200.613281 214.082031 200.472656 213.976562 200.324219 213.894531 C 200.175781 213.8125 200.015625 213.753906 199.839844 213.710938 C 199.667969 213.671875 199.472656 213.652344 199.253906 213.652344 C 199.074219 213.652344 198.886719 213.671875 198.6875 213.710938 C 198.488281 213.746094 198.292969 213.804688 198.101562 213.886719 C 197.910156 213.964844 197.730469 214.070312 197.558594 214.195312 C 197.386719 214.328125 197.234375 214.484375 197.105469 214.671875 C 196.972656 214.855469 196.871094 215.070312 196.792969 215.3125 C 196.714844 215.558594 196.675781 215.835938 196.675781 216.148438 C 196.675781 216.550781 196.746094 216.90625 196.878906 217.214844 C 197.019531 217.523438 197.203125 217.78125 197.4375 217.992188 C 197.667969 218.203125 197.945312 218.363281 198.261719 218.472656 C 198.582031 218.582031 198.917969 218.636719 199.277344 218.636719 C 199.5625 218.636719 199.859375 218.59375 200.160156 218.511719 C 200.464844 218.429688 200.742188 218.308594 200.996094 218.152344 L 200.996094 216.738281 L 198.84375 216.738281 L 198.84375 216.355469 L 201.398438 216.355469 L 201.398438 218.351562 C 201.214844 218.472656 201.035156 218.574219 200.859375 218.65625 C 200.6875 218.742188 200.511719 218.808594 200.335938 218.863281 C 200.160156 218.914062 199.980469 218.953125 199.796875 218.976562 C 199.613281 218.996094 199.421875 219.007812 199.222656 219.007812 C 198.835938 219.007812 198.460938 218.945312 198.105469 218.816406 C 197.746094 218.691406 197.433594 218.503906 197.164062 218.257812 C 196.894531 218.011719 196.675781 217.714844 196.515625 217.363281 C 196.355469 217.007812 196.273438 216.605469 196.273438 216.148438 C 196.273438 215.800781 196.316406 215.488281 196.40625 215.210938 C 196.492188 214.9375 196.609375 214.695312 196.757812 214.480469 C 196.90625 214.269531 197.078125 214.085938 197.277344 213.933594 C 197.472656 213.78125 197.679688 213.65625 197.898438 213.558594 C 198.117188 213.464844 198.339844 213.394531 198.570312 213.347656 C 198.796875 213.304688 199.015625 213.28125 199.222656 213.28125 C 199.496094 213.28125 199.738281 213.304688 199.953125 213.355469 C 200.164062 213.40625 200.359375 213.480469 200.53125 213.578125 C 200.707031 213.679688 200.867188 213.800781 201.019531 213.945312 C 201.164062 214.089844 201.3125 214.253906 201.457031 214.4375 Z M 201.128906 214.644531 "/>
<path fill-rule="nonzero" fill="rgb(13.729858%, 12.159729%, 12.548828%)" fill-opacity="1" d="M 203.042969 213.386719 L 203.445312 213.386719 L 203.445312 218.902344 L 203.042969 218.902344 Z M 203.042969 213.386719 "/>
<path fill-rule="nonzero" fill="rgb(13.729858%, 12.159729%, 12.548828%)" fill-opacity="1" d="M 210.363281 218.113281 C 210.210938 218.277344 210.03125 218.425781 209.832031 218.558594 C 209.628906 218.6875 209.40625 218.796875 209.15625 218.882812 C 208.910156 218.964844 208.632812 219.007812 208.324219 219.007812 C 207.871094 219.007812 207.464844 218.9375 207.105469 218.796875 C 206.746094 218.65625 206.453125 218.480469 206.230469 218.269531 C 205.945312 218.003906 205.726562 217.6875 205.570312 217.332031 C 205.414062 216.976562 205.335938 216.578125 205.335938 216.140625 C 205.335938 215.703125 205.414062 215.3125 205.566406 214.960938 C 205.714844 214.609375 205.925781 214.308594 206.191406 214.054688 C 206.464844 213.804688 206.785156 213.609375 207.152344 213.480469 C 207.519531 213.347656 207.921875 213.28125 208.359375 213.28125 C 208.625 213.28125 208.867188 213.3125 209.089844 213.375 C 209.3125 213.4375 209.515625 213.523438 209.703125 213.632812 C 209.882812 213.746094 210.050781 213.878906 210.199219 214.03125 C 210.347656 214.1875 210.480469 214.355469 210.59375 214.539062 L 210.261719 214.75 C 210.160156 214.59375 210.046875 214.449219 209.925781 214.316406 C 209.800781 214.183594 209.660156 214.066406 209.503906 213.964844 C 209.347656 213.867188 209.175781 213.789062 208.984375 213.734375 C 208.796875 213.679688 208.589844 213.652344 208.359375 213.652344 C 208.042969 213.652344 207.726562 213.699219 207.414062 213.792969 C 207.101562 213.882812 206.820312 214.027344 206.574219 214.230469 C 206.324219 214.429688 206.125 214.691406 205.96875 215.003906 C 205.816406 215.320312 205.738281 215.703125 205.738281 216.148438 C 205.738281 216.570312 205.8125 216.9375 205.957031 217.25 C 206.097656 217.5625 206.292969 217.820312 206.53125 218.023438 C 206.773438 218.230469 207.050781 218.382812 207.359375 218.484375 C 207.667969 218.585938 207.988281 218.632812 208.324219 218.632812 C 208.589844 218.632812 208.832031 218.59375 209.054688 218.515625 C 209.269531 218.4375 209.46875 218.335938 209.644531 218.214844 C 209.820312 218.09375 209.976562 217.960938 210.105469 217.816406 C 210.238281 217.671875 210.351562 217.535156 210.445312 217.40625 L 210.773438 217.628906 C 210.652344 217.789062 210.515625 217.949219 210.363281 218.113281 "/>
<path fill-rule="nonzero" fill="rgb(13.729858%, 12.159729%, 12.548828%)" fill-opacity="1" d="M 217.160156 215.035156 C 217.019531 214.71875 216.824219 214.460938 216.585938 214.257812 C 216.34375 214.054688 216.066406 213.902344 215.746094 213.800781 C 215.429688 213.695312 215.101562 213.648438 214.757812 213.648438 L 214.75 213.648438 C 214.40625 213.648438 214.078125 213.695312 213.761719 213.800781 C 213.449219 213.902344 213.167969 214.054688 212.929688 214.257812 C 212.6875 214.460938 212.496094 214.71875 212.351562 215.035156 C 212.207031 215.351562 212.136719 215.71875 212.136719 216.140625 C 212.136719 216.5625 212.207031 216.929688 212.351562 217.242188 C 212.496094 217.554688 212.6875 217.8125 212.929688 218.015625 C 213.167969 218.222656 213.449219 218.375 213.765625 218.476562 C 214.082031 218.578125 214.414062 218.628906 214.757812 218.628906 C 215.101562 218.628906 215.429688 218.578125 215.746094 218.476562 C 216.066406 218.375 216.34375 218.222656 216.585938 218.015625 C 216.824219 217.8125 217.019531 217.554688 217.160156 217.242188 C 217.308594 216.929688 217.378906 216.5625 217.378906 216.140625 C 217.378906 215.71875 217.308594 215.351562 217.160156 215.035156 M 217.527344 217.40625 C 217.359375 217.765625 217.132812 218.0625 216.851562 218.300781 C 216.570312 218.539062 216.25 218.714844 215.886719 218.832031 C 215.519531 218.949219 215.144531 219.007812 214.757812 219.007812 C 214.367188 219.007812 213.992188 218.949219 213.628906 218.832031 C 213.265625 218.714844 212.941406 218.539062 212.660156 218.300781 C 212.378906 218.0625 212.15625 217.765625 211.988281 217.40625 C 211.820312 217.050781 211.734375 216.628906 211.734375 216.148438 L 211.734375 216.140625 C 211.734375 215.660156 211.820312 215.238281 211.988281 214.882812 C 212.15625 214.523438 212.378906 214.226562 212.660156 213.988281 C 212.941406 213.75 213.265625 213.574219 213.628906 213.457031 C 213.992188 213.339844 214.367188 213.28125 214.757812 213.28125 C 215.144531 213.28125 215.519531 213.339844 215.886719 213.457031 C 216.25 213.574219 216.570312 213.75 216.851562 213.988281 C 217.132812 214.226562 217.359375 214.527344 217.527344 214.886719 C 217.695312 215.246094 217.78125 215.667969 217.78125 216.148438 C 217.78125 216.628906 217.695312 217.050781 217.527344 217.40625 "/>
<path fill-rule="nonzero" fill="rgb(13.729858%, 12.159729%, 12.548828%)" fill-opacity="1" d="M 20.148438 206.835938 L 20.148438 185.050781 L 26.191406 185.050781 L 26.191406 201.984375 L 46.335938 201.984375 L 46.335938 206.835938 Z M 20.148438 206.835938 "/>
<path fill-rule="nonzero" fill="rgb(13.729858%, 12.159729%, 12.548828%)" fill-opacity="1" d="M 60.824219 197.453125 L 69.839844 197.453125 L 65.351562 190.457031 Z M 68.335938 185.050781 L 82.390625 206.835938 L 75.882812 206.835938 L 72.828125 202.066406 L 57.855469 202.066406 L 54.765625 206.835938 L 48.273438 206.835938 L 62.328125 185.050781 Z M 68.335938 185.050781 "/>
<path fill-rule="nonzero" fill="rgb(13.729858%, 12.159729%, 12.548828%)" fill-opacity="1" d="M 119.628906 185.050781 L 119.628906 206.835938 L 113.589844 206.835938 L 113.589844 193.03125 L 104.574219 204.878906 L 99.386719 204.878906 L 90.371094 193.03125 L 90.371094 206.835938 L 84.332031 206.835938 L 84.332031 185.050781 L 90.597656 185.050781 L 101.972656 200.316406 L 113.34375 185.050781 Z M 119.628906 185.050781 "/>
<path fill-rule="nonzero" fill="rgb(13.729858%, 12.159729%, 12.548828%)" fill-opacity="1" d="M 129.402344 190.648438 C 128.855469 191.113281 128.582031 191.710938 128.582031 192.445312 L 128.582031 199.441406 C 128.582031 200.140625 128.855469 200.746094 129.402344 201.253906 C 129.953125 201.730469 130.625 201.976562 131.421875 201.984375 L 145.171875 201.984375 C 145.976562 201.953125 146.648438 201.707031 147.1875 201.238281 C 147.738281 200.730469 148.015625 200.128906 148.015625 199.441406 L 148.015625 192.445312 C 148.015625 191.710938 147.738281 191.109375 147.1875 190.628906 C 146.648438 190.113281 145.976562 189.867188 145.171875 189.898438 L 131.421875 189.898438 C 130.625 189.890625 129.953125 190.136719 129.402344 190.648438 M 146.949219 185.050781 C 148.929688 185.050781 150.609375 185.667969 151.988281 186.910156 C 153.378906 188.148438 154.066406 189.648438 154.054688 191.410156 L 154.054688 200.472656 C 154.066406 202.234375 153.378906 203.734375 151.988281 204.976562 C 150.609375 206.214844 148.929688 206.835938 146.949219 206.835938 L 129.644531 206.835938 C 127.675781 206.835938 125.996094 206.214844 124.605469 204.976562 C 123.226562 203.734375 122.539062 202.234375 122.539062 200.472656 L 122.539062 191.410156 C 122.539062 189.648438 123.226562 188.148438 124.605469 186.910156 C 125.996094 185.667969 127.675781 185.050781 129.644531 185.050781 Z M 146.949219 185.050781 "/>
<path fill-rule="nonzero" fill="rgb(13.729858%, 12.159729%, 12.548828%)" fill-opacity="1" d="M 187.722656 185.050781 L 187.722656 189.898438 L 165.863281 189.898438 C 165.066406 189.886719 164.394531 190.136719 163.84375 190.648438 C 163.296875 191.113281 163.023438 191.710938 163.023438 192.441406 L 163.023438 199.441406 C 163.023438 200.140625 163.296875 200.746094 163.84375 201.253906 C 164.394531 201.730469 165.066406 201.976562 165.863281 201.984375 L 182.457031 201.984375 L 182.457031 198.597656 L 174.914062 198.597656 L 174.914062 194.003906 L 188.496094 194.003906 L 188.496094 206.835938 L 164.085938 206.835938 C 162.117188 206.835938 160.4375 206.214844 159.046875 204.976562 C 157.667969 203.734375 156.980469 202.234375 156.980469 200.472656 L 156.980469 191.410156 C 156.980469 189.648438 157.667969 188.148438 159.046875 186.910156 C 160.4375 185.667969 162.117188 185.050781 164.085938 185.050781 Z M 187.722656 185.050781 "/>
<path fill-rule="nonzero" fill="rgb(13.729858%, 12.159729%, 12.548828%)" fill-opacity="1" d="M 217.78125 185.050781 L 217.78125 189.898438 L 196.488281 189.898438 L 196.488281 193.460938 L 214.9375 193.460938 L 214.9375 198.230469 L 196.488281 198.230469 L 196.488281 201.984375 L 217.78125 201.984375 L 217.78125 206.835938 L 190.445312 206.835938 L 190.445312 185.050781 Z M 217.78125 185.050781 "/>
<path fill-rule="nonzero" fill="rgb(98.414612%, 98.268127%, 98.181152%)" fill-opacity="1" d="M 164.621094 179.503906 C 173.664062 179.511719 182.707031 179.605469 191.746094 179.835938 L 197.144531 179.835938 C 186.484375 179.582031 175.550781 179.492188 164.621094 179.503906 "/>
<path fill-rule="nonzero" fill="rgb(98.414612%, 98.268127%, 98.181152%)" fill-opacity="1" d="M 204.050781 93.984375 C 205.121094 93.910156 206.386719 93.875 207.753906 93.863281 C 206.523438 93.851562 205.292969 93.886719 204.050781 93.984375 "/>
<path fill-rule="nonzero" fill="rgb(98.414612%, 98.268127%, 98.181152%)" fill-opacity="1" d="M 213.195312 155.394531 L 213.445312 155.152344 C 212.511719 155.152344 211.582031 155.164062 210.703125 155.175781 C 211.542969 155.199219 212.378906 155.25 213.195312 155.394531 "/>
<path fill-rule="nonzero" fill="rgb(9.60083%, 8.972168%, 8.453369%)" fill-opacity="1" d="M 40.53125 171.753906 C 37.765625 174.410156 35.097656 177.1875 32.335938 179.835938 L 83.964844 179.835938 C 81.28125 177.222656 78.617188 174.585938 75.933594 171.972656 C 62.015625 158.433594 54.46875 158.34375 40.53125 171.753906 "/>
<path fill-rule="nonzero" fill="rgb(9.60083%, 8.972168%, 8.453369%)" fill-opacity="1" d="M 33.613281 165.476562 C 38.617188 159.738281 43.117188 153.539062 49.261719 148.871094 C 55.929688 143.808594 61.226562 143.78125 67.714844 149.03125 C 69.890625 150.792969 71.882812 152.820312 73.742188 154.917969 C 77.480469 159.136719 81.082031 163.472656 84.714844 167.78125 C 90.707031 174.882812 97.855469 179.035156 106.949219 179.835938 L 123.472656 179.835938 C 136.757812 179.679688 150.675781 179.515625 164.621094 179.503906 C 175.550781 179.492188 186.484375 179.582031 197.144531 179.835938 L 217.78125 179.835938 L 217.78125 167.09375 C 213.917969 167.046875 210.054688 167.015625 206.191406 167.007812 C 175.324219 166.949219 144.449219 166.585938 113.585938 167.058594 C 101.042969 167.25 91.363281 163.125 83.75 153.386719 C 80.992188 149.867188 78.027344 146.496094 74.980469 143.21875 C 72.503906 140.558594 69.949219 137.90625 67.101562 135.667969 C 60.835938 130.742188 55.765625 130.8125 49.492188 135.585938 C 44.976562 139.023438 41.277344 143.265625 37.691406 147.640625 C 32.445312 154.042969 27.324219 160.621094 20.148438 164.632812 L 20.148438 177.15625 C 25.640625 174.230469 29.710938 169.949219 33.613281 165.476562 "/>
<path fill-rule="nonzero" fill="rgb(9.60083%, 8.972168%, 8.453369%)" fill-opacity="1" d="M 86.863281 28.902344 C 105.304688 24.484375 124.546875 26.894531 143.441406 26.527344 C 150.964844 26.382812 158.363281 27.234375 165.550781 29.421875 C 176.460938 32.738281 187.566406 33.941406 198.953125 33.535156 C 205.21875 33.308594 211.511719 33.214844 217.78125 33.4375 L 217.78125 21.375 L 20.148438 21.375 L 20.148438 33.390625 C 42.480469 33.675781 64.695312 34.214844 86.863281 28.902344 "/>
<path fill-rule="nonzero" fill="rgb(9.60083%, 8.972168%, 8.453369%)" fill-opacity="1" d="M 54.039062 82.230469 C 60.386719 82.292969 65.597656 80.21875 70.09375 75.699219 C 75.714844 70.054688 80.828125 63.964844 86.164062 58.066406 C 92.351562 51.21875 99.851562 47.269531 109.335938 47.464844 C 119.125 47.664062 128.921875 47.671875 138.714844 47.691406 C 147.867188 47.710938 155.378906 50.996094 161.472656 57.996094 C 165.699219 62.847656 169.160156 68.300781 173.769531 72.851562 C 178.578125 77.601562 183.859375 81.988281 190.664062 82.3125 C 199.6875 82.738281 208.730469 82.46875 217.78125 82.335938 L 217.78125 69.507812 C 210.730469 69.445312 203.675781 69.429688 196.613281 69.820312 C 189.65625 70.207031 182.960938 68.28125 177.105469 63.871094 C 171.363281 59.550781 166.84375 54.023438 161.660156 49.160156 C 155.398438 43.289062 148.1875 40.335938 139.644531 40.351562 C 129.1875 40.371094 118.730469 40.371094 108.277344 40.214844 C 100.417969 40.101562 93.628906 42.675781 87.839844 47.867188 C 82.78125 52.40625 77.828125 57.058594 72.871094 61.707031 C 67.175781 67.054688 60.6875 69.832031 52.636719 69.53125 C 41.820312 69.132812 30.980469 69.371094 20.148438 69.398438 L 20.148438 82.1875 C 31.636719 82.171875 42.847656 82.121094 54.039062 82.230469 "/>
<path fill-rule="nonzero" fill="rgb(9.60083%, 8.972168%, 8.453369%)" fill-opacity="1" d="M 53.105469 57.449219 C 60.210938 57.386719 66.863281 55.402344 72.867188 51.574219 C 76.910156 48.992188 80.855469 46.246094 84.75 43.4375 C 92.25 38.03125 100.488281 35.183594 109.816406 35.5 C 115.453125 35.6875 121.140625 36.011719 126.730469 35.492188 C 144.144531 33.878906 159.378906 38.066406 172.433594 50.25 C 178.980469 56.355469 187.46875 58.5625 196.433594 57.988281 C 203.550781 57.53125 210.664062 57.640625 217.78125 57.746094 L 217.78125 45.101562 C 213 44.96875 208.222656 44.949219 203.480469 45.320312 C 189.460938 46.417969 176.515625 43.707031 164.351562 36.636719 C 157.621094 32.726562 150.175781 31.246094 142.386719 31.308594 C 131.765625 31.390625 121.140625 31.570312 110.527344 31.253906 C 99.980469 30.941406 90.164062 33.222656 80.777344 37.890625 C 74.066406 41.230469 67.015625 43.460938 59.53125 44.484375 C 46.417969 46.277344 33.277344 45.210938 20.148438 45.203125 L 20.148438 57.488281 C 31.242188 57.503906 42.179688 57.546875 53.105469 57.449219 "/>
<path fill-rule="nonzero" fill="rgb(9.60083%, 8.972168%, 8.453369%)" fill-opacity="1" d="M 65.820312 100.417969 C 71.855469 96.070312 77.875 91.664062 82.933594 86.171875 C 89.695312 78.828125 97.617188 74.125 107.902344 74.113281 C 118.460938 74.101562 129.019531 73.984375 139.574219 73.933594 C 145.34375 73.902344 150.503906 75.527344 155.457031 78.660156 C 161.808594 82.679688 165.613281 88.949219 170.503906 94.25 C 176.835938 101.117188 183.867188 106.574219 193.765625 106.699219 C 196.140625 106.726562 210.542969 106.660156 217.78125 106.613281 L 217.78125 94.03125 C 214.84375 93.96875 211.027344 93.84375 207.75 93.863281 C 206.386719 93.875 205.121094 93.910156 204.050781 93.984375 C 203.679688 94.011719 203.328125 94.039062 203.011719 94.078125 C 189.574219 95.628906 178.25 92.078125 170.546875 79.851562 C 167.027344 74.273438 162.40625 69.417969 157.675781 64.769531 C 153.863281 61.023438 149.183594 58.695312 143.925781 58.519531 C 131.328125 58.09375 118.714844 57.71875 106.101562 58.285156 C 98.332031 58.636719 92.132812 62.058594 87.078125 67.757812 C 81.925781 73.574219 76.632812 79.289062 71.816406 85.382812 C 67.097656 91.347656 61.15625 93.957031 53.71875 93.914062 C 43.929688 93.855469 34.136719 93.871094 24.347656 94.003906 C 22.953125 94.019531 21.546875 93.921875 20.148438 93.878906 L 20.148438 106.335938 C 32.945312 105.84375 45.53125 102.898438 58.394531 102.996094 C 61.011719 103.015625 63.644531 101.984375 65.820312 100.417969 "/>
<path fill-rule="nonzero" fill="rgb(9.60083%, 8.972168%, 8.453369%)" fill-opacity="1" d="M 38.9375 120.53125 C 46.828125 115.863281 55.261719 113.371094 64.445312 113.28125 C 85.84375 113.070312 107.257812 112.664062 128.632812 111.972656 C 145.117188 111.4375 159.695312 114.640625 172.828125 124.8125 C 179.011719 129.601562 186.453125 131.308594 194.359375 131.175781 C 202.164062 131.046875 209.972656 131.023438 217.78125 131.035156 L 217.78125 118.136719 C 212.761719 117.910156 207.71875 117.835938 202.78125 118.425781 C 189.199219 120.035156 177.976562 115.960938 168.652344 106.136719 C 167.285156 104.695312 165.730469 103.433594 164.308594 102.046875 C 157.417969 95.324219 149.511719 91.398438 139.546875 91.707031 C 130.535156 91.984375 121.5 91.550781 112.476562 91.390625 C 102.582031 91.21875 93.292969 92.9375 84.570312 98.148438 C 79.378906 101.253906 73.660156 103.554688 68.238281 106.363281 C 63.023438 109.066406 57.007812 108.902344 51.257812 109.660156 C 40.609375 111.066406 30.816406 116.03125 20.148438 117.710938 L 20.148438 129.648438 C 20.332031 129.589844 20.515625 129.53125 20.699219 129.476562 C 27.28125 127.523438 33.101562 123.984375 38.9375 120.53125 "/>
<path fill-rule="nonzero" fill="rgb(9.60083%, 8.972168%, 8.453369%)" fill-opacity="1" d="M 34.261719 141.582031 C 38.960938 136.679688 43.46875 131.597656 49.015625 127.554688 C 54.992188 123.203125 60.84375 123.101562 67.015625 127.066406 C 71.5 129.949219 75.824219 133.128906 79.429688 136.949219 C 90.847656 149.042969 104.832031 153.105469 120.949219 151.300781 C 121.28125 151.261719 121.613281 151.21875 121.941406 151.21875 C 135.367188 151.332031 148.90625 149.675781 162.175781 152.289062 C 176.789062 155.164062 191.441406 155.84375 206.234375 155.273438 C 207.035156 155.242188 208.734375 155.199219 210.703125 155.175781 C 211.582031 155.164062 212.511719 155.152344 213.445312 155.148438 C 214.96875 155.144531 216.492188 155.15625 217.78125 155.191406 L 217.78125 142.902344 C 210.078125 142.820312 202.375 142.871094 194.675781 142.992188 C 186.585938 143.125 178.726562 142.042969 171.425781 138.59375 C 159.585938 133 147.226562 130.894531 134.222656 131.765625 C 129.59375 132.078125 124.917969 131.667969 120.289062 131.964844 C 105.410156 132.925781 91.109375 130.714844 77.882812 123.710938 C 62.328125 115.472656 48.765625 117.738281 36.21875 129.886719 C 31.523438 134.433594 26.238281 138.28125 20.148438 140.78125 L 20.148438 152.90625 C 25.621094 150.117188 30.046875 145.976562 34.261719 141.582031 "/>
<path fill-rule="nonzero" fill="rgb(13.729858%, 12.159729%, 12.548828%)" fill-opacity="1" d="M 217.78125 21.375 L 20.148438 21.375 L 20.148438 179.839844 L 217.78125 179.839844 Z M 216.785156 178.839844 L 21.144531 178.839844 L 21.144531 22.371094 L 216.785156 22.371094 Z M 216.785156 178.839844 "/>
</svg>
