<svg xmlns="http://www.w3.org/2000/svg" viewBox="0 0 800 500">
  <rect width="800" height="500" rx="36" fill="#0d1f2d"/>
  <rect x="116" y="104" width="568" height="292" rx="24" fill="#f4f8fb"/>
  <rect x="154" y="142" width="184" height="196" rx="18" fill="#dde8ef"/>
  <path d="M184 286c20-36 38-54 54-54 22 0 30 34 48 34 18 0 24-22 38-22 14 0 24 14 42 42" stroke="#66c8c2" stroke-width="8" fill="none"/>
  <g fill="#16384d">
    <rect x="374" y="150" width="250" height="22" rx="10"/>
    <rect x="374" y="198" width="208" height="20" rx="10" opacity=".35"/>
    <rect x="374" y="238" width="228" height="20" rx="10" opacity=".55"/>
    <rect x="374" y="278" width="190" height="20" rx="10" opacity=".35"/>
  </g>
  <g stroke="#d7b46a" stroke-width="4" opacity=".85">
    <path d="M394 338h204"/>
    <path d="M394 322h152"/>
  </g>
</svg>
