<svg xmlns="http://www.w3.org/2000/svg" viewBox="0 0 1600 960">
  <defs>
    <linearGradient id="bg" x1="0%" x2="100%" y1="0%" y2="100%">
      <stop offset="0%" stop-color="#08131d" />
      <stop offset="45%" stop-color="#0d2637" />
      <stop offset="100%" stop-color="#153e59" />
    </linearGradient>
    <linearGradient id="surface" x1="0%" x2="100%" y1="0%" y2="0%">
      <stop offset="0%" stop-color="#66c8c2" stop-opacity=".28" />
      <stop offset="100%" stop-color="#d7b46a" stop-opacity=".2" />
    </linearGradient>
    <linearGradient id="fault" x1="0%" x2="0%" y1="0%" y2="1">
      <stop offset="0%" stop-color="#f4f8fb" stop-opacity=".9" />
      <stop offset="100%" stop-color="#66c8c2" stop-opacity=".2" />
    </linearGradient>
  </defs>
  <rect width="1600" height="960" fill="url(#bg)"/>
  <circle cx="1310" cy="170" r="124" fill="#d7b46a" opacity=".12"/>
  <circle cx="1430" cy="124" r="28" fill="#f4f8fb" opacity=".3"/>
  <g opacity=".95">
    <path d="M0 690c166-74 286-96 416-64 170 42 226 164 394 152 180-14 252-166 430-184 120-12 224 30 360 92V960H0Z" fill="#18384e"/>
    <path d="M0 748c178-52 290-42 428 4 140 46 206 122 344 118 162-4 262-122 434-148 152-22 256 8 394 58V960H0Z" fill="#234861"/>
    <path d="M0 818c154-30 268-22 394 12 164 44 252 92 396 88 166-6 270-90 438-102 130-10 236 4 372 40V960H0Z" fill="#2e5b75"/>
  </g>
  <g fill="none" stroke-linecap="round">
    <path d="M90 612c122-78 252-104 382-76 124 28 194 116 316 114 164-2 214-116 382-134 144-16 246 24 344 58" stroke="url(#surface)" stroke-width="6"/>
    <path d="M110 734c108-50 208-62 306-38 126 30 198 106 330 102 148-4 222-92 382-116 122-18 236 4 356 28" stroke="#d7b46a" stroke-width="5" opacity=".45"/>
    <path d="M744 272 650 802" stroke="url(#fault)" stroke-width="12"/>
    <path d="M882 250 760 840" stroke="#66c8c2" stroke-width="4" opacity=".55" stroke-dasharray="10 14"/>
    <path d="M566 504c40-28 88-40 138-24 46 14 64 48 106 54 54 8 86-20 126-48" stroke="#f4f8fb" stroke-width="3" opacity=".45"/>
  </g>
  <g opacity=".25" fill="none" stroke="#f4f8fb">
    <path d="M84 214c60 28 120 28 180 0 60-28 120-28 180 0 60 28 120 28 180 0" stroke-width="2"/>
    <path d="M84 254c60 28 120 28 180 0 60-28 120-28 180 0 60 28 120 28 180 0" stroke-width="2"/>
    <path d="M84 294c60 28 120 28 180 0 60-28 120-28 180 0 60 28 120 28 180 0" stroke-width="2"/>
  </g>
</svg>
