<svg xmlns="http://www.w3.org/2000/svg" viewBox="0 0 800 500">
  <rect width="800" height="500" rx="36" fill="#0f2232"/>
  <path d="M0 322c104-48 172-58 252-36 122 34 164 94 270 88 118-8 170-82 278-112V500H0Z" fill="#1d4259"/>
  <path d="M0 366c88-20 154-18 228 8 96 34 164 70 256 66 114-4 186-54 316-70V500H0Z" fill="#2c5c77"/>
  <path d="M122 108h560v220H122z" fill="#0a1822" opacity=".68"/>
  <path d="M164 276c72-40 130-56 180-48 84 14 118 82 202 80 74-2 110-50 182-76" stroke="#66c8c2" stroke-width="7" fill="none"/>
  <path d="M436 112 372 336" stroke="#d7b46a" stroke-width="12"/>
  <path d="M456 108 392 336" stroke="#f4f8fb" stroke-width="4" stroke-dasharray="8 12" opacity=".6"/>
</svg>
