<svg xmlns="http://www.w3.org/2000/svg" viewBox="0 0 800 500">
  <rect width="800" height="500" rx="36" fill="#0d1f2d"/>
  <rect x="88" y="108" width="624" height="286" rx="28" fill="#17384d"/>
  <path d="M134 178h532" stroke="#d7b46a" stroke-width="8" stroke-dasharray="14 14" opacity=".8"/>
  <path d="M150 318c42-88 78-132 108-132 40 0 52 76 92 76 34 0 48-58 86-58 34 0 54 42 86 42 36 0 56-72 98-72 28 0 52 32 92 108" stroke="#66c8c2" stroke-width="8" fill="none"/>
  <g stroke="#f4f8fb" stroke-width="5" opacity=".76">
    <path d="M202 154v174"/>
    <path d="M284 138v186"/>
    <path d="M372 124v208"/>
    <path d="M468 144v176"/>
    <path d="M560 166v150"/>
  </g>
</svg>
