<svg xmlns="http://www.w3.org/2000/svg" viewBox="0 0 800 500">
  <rect width="800" height="500" rx="36" fill="#122d42"/>
  <g opacity=".8">
    <rect x="92" y="84" width="616" height="332" rx="28" fill="#0a1822"/>
    <path d="M140 334c74-112 132-168 184-168 74 0 92 124 156 124 52 0 78-78 130-78 58 0 94 76 140 76" stroke="#66c8c2" stroke-width="8" fill="none"/>
    <path d="M140 356c54-44 110-62 164-46 52 16 78 58 122 58 58 0 90-70 152-70 44 0 84 40 172 48" stroke="#d7b46a" stroke-width="8" fill="none"/>
  </g>
</svg>
